<svg 
  xmlns="http://www.w3.org/2000/svg" 
  viewBox="0 0 24 24" 
  height="32" 
  aria-label="Spotify"
>
  <path 
    fill="white" 
    d="M12 0C5.4 0 0 5.4 0 12s5.4 12 12 12 12-5.4 12-12S18.66 0 12 0zm5.52 17.6c-.24.36-.67.48-1.02.24-2.8-1.68-6.36-2.04-10.56-1.08-.42.12-.78-.18-.9-.54-.12-.42.18-.78.54-.9 4.56-1.08 8.52-.66 11.64 1.26.36.18.48.66.3 1.02zm1.44-3.3c-.3.42-.84.6-1.26.3-3.24-1.98-8.16-2.58-11.94-1.38-.48.12-1.02-.12-1.14-.6-.12-.48.12-1.02.6-1.14 4.32-1.26 9.72-.6 13.44 1.62.42.18.54.78.3 1.2zm.12-3.36c-3.9-2.28-10.32-2.52-14.04-1.38-.6.18-1.2-.18-1.38-.72-.18-.6.18-1.2.72-1.38 4.32-1.26 11.52-1.02 15.96 1.62.54.3.72 1.02.42 1.56-.3.48-1.02.66-1.56.36z"
  />
</svg>